<svg version="1.0" xmlns="http://www.w3.org/2000/svg"
 width="21285.000000pt" height="3527.000000pt" viewBox="0 0 21285.000000 3527.000000"
 preserveAspectRatio="xMidYMid meet" fill="#000000">

<g transform="translate(0.000000,3527.000000) scale(0.100000,-0.100000)"
 stroke="none">
<path d="M0 17640 l0 -17630 2380 0 2380 0 0 17630 0 17630 -2380 0 -2380 0 0
-17630z"/>
<path d="M8680 32890 l0 -2380 5993 0 c3635 0 6063 -4 6172 -10 1165 -61 2218
-476 3125 -1230 161 -134 496 -469 630 -630 617 -742 1008 -1586 1165 -2513
117 -693 89 -1431 -80 -2115 -231 -930 -707 -1775 -1385 -2452 -420 -420 -862
-737 -1395 -1000 -619 -306 -1258 -479 -1950 -530 -93 -6 -2192 -10 -6207 -10
l-6068 0 0 -2380 0 -2380 6113 -3 c4732 -2 6138 -6 6227 -15 360 -39 576 -76
865 -149 757 -191 1459 -552 2085 -1073 161 -134 496 -469 630 -630 617 -742
1008 -1586 1165 -2513 117 -693 89 -1431 -80 -2115 -336 -1355 -1198 -2524
-2395 -3244 -85 -51 -244 -138 -355 -194 -571 -287 -1124 -449 -1805 -531
-136 -17 -521 -18 -6297 -20 l-6153 -3 0 -2380 0 -2380 6248 3 c6769 3 6264
-1 6752 52 2045 221 3958 1064 5514 2428 750 658 1412 1444 1938 2302 302 491
599 1095 807 1637 321 839 534 1755 615 2648 55 604 55 1268 0 1865 -123 1340
-528 2670 -1171 3843 -359 656 -759 1228 -1268 1814 -191 220 -669 700 -888
893 -86 76 -156 142 -155 145 2 4 46 44 98 90 1131 986 2035 2228 2626 3607
714 1666 958 3511 703 5333 -228 1626 -862 3183 -1837 4508 -1604 2181 -4003
3618 -6662 3991 -359 50 -641 75 -1030 91 -156 6 -2428 10 -6267 10 l-6023 0
0 -2380z"/>
<path d="M33560 17640 l0 -17630 2380 0 2380 0 0 17630 0 17630 -2380 0 -2380
0 0 -17630z"/>
<path d="M43190 32890 l0 -2380 6118 -3 c5748 -3 6127 -4 6277 -20 697 -77
1245 -233 1830 -522 529 -261 942 -554 1358 -964 327 -322 566 -620 803 -1003
113 -183 331 -618 407 -813 634 -1627 433 -3437 -541 -4865 -251 -368 -599
-758 -922 -1034 -741 -633 -1630 -1046 -2581 -1201 -384 -62 -225 -58 -2789
-66 -1290 -5 -2372 -11 -2405 -14 -33 -3 -148 -12 -255 -20 -1060 -81 -2116
-340 -3125 -767 -227 -96 -729 -342 -944 -463 -1003 -563 -1901 -1290 -2648
-2141 -970 -1106 -1687 -2411 -2088 -3799 -198 -687 -308 -1289 -371 -2045
-21 -253 -30 -974 -15 -1255 96 -1826 649 -3512 1646 -5020 743 -1124 1692
-2074 2815 -2820 402 -267 673 -423 1110 -639 1215 -602 2514 -940 3895 -1016
127 -7 2226 -10 6313 -10 l6122 0 0 2380 0 2380 -6152 3 c-5848 2 -6160 3
-6303 20 -1083 130 -2018 531 -2840 1218 -136 114 -415 388 -544 535 -771 877
-1221 1955 -1302 3119 -15 213 -6 686 15 885 45 407 126 772 254 1150 75 221
143 383 262 625 264 537 587 985 1015 1410 838 833 1932 1357 3110 1489 285
33 529 36 2630 36 1259 0 2181 4 2285 10 1055 60 2049 267 3000 625 1616 609
3048 1629 4160 2960 1083 1298 1810 2824 2134 4480 175 897 227 1844 150 2770
-225 2738 -1577 5263 -3743 6990 -757 603 -1613 1101 -2511 1460 -941 377
-1950 610 -2965 685 -372 28 -832 30 -6637 30 l-6028 0 0 -2380z"/>
<path d="M71793 23978 c2 -8784 6 -11326 15 -11443 32 -389 44 -523 63 -690
418 -3755 2422 -7153 5524 -9370 1857 -1328 4047 -2157 6325 -2395 550 -57
953 -74 1580 -67 482 6 587 10 970 42 2390 199 4699 1055 6655 2465 594 429
1079 843 1626 1389 528 528 866 918 1293 1492 953 1280 1672 2733 2111 4266
466 1625 617 3345 445 5053 -325 3213 -1820 6204 -4210 8421 -1066 988 -2327
1820 -3645 2404 -2143 949 -4492 1317 -6835 1069 -2564 -271 -4981 -1279
-6993 -2916 -86 -70 -160 -128 -162 -128 -3 0 -5 2633 -5 5850 l0 5850 -2380
0 -2380 0 3 -11292z m13967 -2073 c220 -17 402 -37 600 -66 2149 -311 4111
-1439 5475 -3147 1576 -1973 2201 -4535 1710 -7009 -294 -1482 -957 -2825
-1971 -3991 -159 -183 -594 -619 -774 -776 -597 -522 -1194 -921 -1890 -1265
-975 -482 -1989 -762 -3100 -856 -256 -22 -843 -30 -1115 -16 -2142 114 -4120
996 -5635 2511 -1357 1358 -2219 3125 -2450 5020 -53 438 -74 1053 -51 1480
81 1481 517 2858 1303 4115 239 382 519 756 847 1130 148 169 588 607 763 759
902 785 1894 1350 3008 1714 716 235 1452 370 2240 412 224 12 801 4 1040 -15z"/>
<path d="M113295 26684 c-914 -39 -1632 -128 -2420 -299 -2840 -618 -5387
-2143 -7296 -4370 -2501 -2916 -3611 -6763 -3059 -10597 339 -2349 1303 -4564
2796 -6420 334 -415 560 -665 983 -1089 674 -673 1284 -1172 2071 -1694 1892
-1255 4060 -1998 6330 -2169 647 -49 1387 -49 2040 0 2704 202 5288 1235 7395
2953 l160 131 3 -1560 2 -1560 2380 0 2380 0 -3 7003 c-2 5386 -6 7037 -15
7152 -47 575 -65 750 -118 1115 -302 2095 -1108 4097 -2349 5830 -702 980
-1562 1888 -2507 2648 -1377 1106 -2973 1933 -4665 2417 -948 272 -1895 431
-2943 495 -172 11 -1009 21 -1165 14z m995 -4774 c779 -56 1475 -196 2194
-440 1637 -558 3067 -1599 4113 -2997 919 -1228 1495 -2690 1657 -4208 35
-328 41 -466 41 -930 -1 -502 -10 -660 -60 -1063 -238 -1883 -1096 -3632
-2445 -4982 -1320 -1320 -3019 -2174 -4845 -2434 -735 -105 -1527 -114 -2260
-25 -1591 193 -3090 829 -4355 1850 -442 356 -919 832 -1277 1276 -314 387
-617 839 -858 1278 -997 1816 -1300 3947 -850 5971 444 1995 1593 3772 3238
5008 1243 933 2729 1514 4272 1670 141 14 386 32 555 40 133 6 731 -3 880 -14z"/>
<path d="M141900 26683 c-1016 -36 -1927 -164 -2875 -403 -4885 -1235 -8690
-5178 -9750 -10105 -184 -853 -274 -1637 -295 -2560 -5 -237 -10 -3201 -10
-7007 l0 -6598 2385 0 2385 0 3 6943 c3 7613 -2 6957 57 7447 197 1620 874
3176 1933 4442 194 233 343 393 598 643 1290 1267 2968 2098 4754 2354 450 64
742 85 1225 85 478 0 770 -19 1205 -80 2238 -314 4281 -1520 5649 -3334 695
-922 1191 -1955 1471 -3060 148 -588 227 -1135 255 -1770 5 -124 10 -249 10
-277 l0 -53 2380 0 2380 0 0 83 c-1 451 -49 1138 -116 1662 -415 3237 -2049
6247 -4554 8391 -1103 943 -2353 1703 -3685 2240 -1598 643 -3323 973 -5035
962 -162 -1 -329 -3 -370 -5z"/>
<path d="M170370 26679 c-2866 -115 -5587 -1136 -7825 -2938 -634 -510 -1258
-1117 -1800 -1751 -879 -1028 -1634 -2257 -2152 -3505 -610 -1470 -941 -2967
-1013 -4585 -6 -145 -10 -2668 -10 -7057 l0 -6833 2380 0 2380 0 0 6788 c0
4416 4 6852 10 6972 21 377 55 685 116 1040 528 3075 2724 5646 5689 6660
1342 458 2779 575 4190 339 1332 -222 2624 -777 3710 -1592 1574 -1181 2697
-2860 3180 -4753 157 -615 244 -1236 262 -1881 l6 -233 2380 0 2380 0 -6 303
c-47 2227 -647 4388 -1752 6317 -482 842 -1033 1599 -1709 2350 -168 187 -719
738 -906 906 -1620 1458 -3472 2468 -5540 3019 -1261 336 -2644 487 -3970 434z"/>
<path d="M198965 26679 c-3700 -148 -7144 -1816 -9569 -4634 -1481 -1722
-2498 -3794 -2951 -6015 -351 -1723 -371 -3298 -65 -5025 556 -3131 2216
-5959 4685 -7984 2084 -1709 4601 -2733 7290 -2965 408 -36 566 -41 1165 -41
646 1 836 9 1335 60 2168 220 4206 951 6019 2158 2113 1406 3790 3397 4820
5719 85 192 256 607 256 622 0 3 -1196 6 -2659 6 l-2658 0 -78 -112 c-287
-414 -624 -817 -990 -1183 -991 -991 -2207 -1726 -3533 -2135 -1378 -426
-2846 -496 -4263 -205 -2192 452 -4145 1773 -5396 3650 -396 594 -700 1198
-946 1880 -58 161 -157 469 -157 488 0 4 4805 8 10677 9 l10677 3 18 105 c262
1556 270 2863 27 4370 -184 1146 -493 2197 -960 3270 -118 271 -402 842 -552
1110 -1197 2143 -2935 3900 -5057 5115 -2152 1232 -4631 1834 -7135 1734z
m1110 -4769 c532 -40 1026 -117 1495 -235 1923 -481 3608 -1605 4808 -3208
295 -393 563 -830 791 -1286 243 -484 405 -895 567 -1433 5 -17 -391 -18
-8230 -18 -5599 0 -8236 3 -8236 10 0 24 183 559 244 715 372 947 882 1783
1562 2563 162 185 555 581 740 743 895 789 1891 1364 2998 1734 748 249 1520
388 2376 429 135 6 742 -3 885 -14z"/>
</g>
</svg>
